Coordinates
version=1
nRows=11
nColumns=63
inDegrees=yes

Units are S.I. units (second, meters, Newtons, ...)
If the header above contains a line with 'inDegrees', this indicates whether rotational values are in degrees (yes) or radians (no).

endheader
time	pelvis_tilt	pelvis_list	pelvis_rotation	pelvis_tx	pelvis_ty	pelvis_tz	hip_flexion_r	hip_adduction_r	hip_rotation_r	knee_angle_r	knee_angle_r_beta	ankle_angle_r	subtalar_angle_r	mtp_angle_r	hip_flexion_l	hip_adduction_l	hip_rotation_l	knee_angle_l	knee_angle_l_beta	ankle_angle_l	subtalar_angle_l	mtp_angle_l	L5_S1_Flex_Ext	L5_S1_Lat_Bending	L5_S1_axial_rotation	L4_L5_Flex_Ext	L4_L5_Lat_Bending	L4_L5_axial_rotation	L3_L4_Flex_Ext	L3_L4_Lat_Bending	L3_L4_axial_rotation	L2_L3_Flex_Ext	L2_L3_Lat_Bending	L2_L3_axial_rotation	L1_L2_Flex_Ext	L1_L2_Lat_Bending	L1_L2_axial_rotation	L1_T12_Flex_Ext	L1_T12_Lat_Bending	L1_T12_axial_rotation	Abs_r3	Abs_r2	Abs_r1	Abs_t1	Abs_t2	neck_flexion	neck_bending	neck_rotation	arm_flex_r	arm_add_r	arm_rot_r	elbow_flex_r	pro_sup_r	wrist_flex_r	wrist_dev_r	arm_flex_l	arm_add_l	arm_rot_l	elbow_flex_l	pro_sup_l	wrist_flex_l	wrist_dev_l
3.118644	-2.774859	-0.573698	92.016396	0.295580	0.717514	0.884696	-3.898851	-0.535533	-4.589181	3.836182	0.066954	19.494745	8.762283	0.000000	-4.811256	1.792276	-3.343535	1.571342	0.027425	20.263152	-2.802196	0.000000	-0.158971	-0.413918	-0.047362	-0.295225	-0.550512	-0.050322	-0.261173	-1.006401	-0.050322	-0.181688	-1.006401	-0.041441	-0.147620	-0.844062	-0.038481	-0.090836	-0.641160	-0.035521	-1.135514	-4.682328	-0.263411	0.000000	0.000000	6.194456	1.349285	-3.211655	-6.926758	-17.881206	12.343074	122.514077	75.392144	12.863756	6.672358	-13.273424	-25.979528	2.954791	125.588894	36.414662	26.795094	19.232909
3.135593	-2.731617	-0.632308	92.616165	0.294803	0.717545	0.884500	-3.975701	-0.440172	-5.048110	3.687418	0.064358	19.499566	8.765081	0.000000	-4.705177	1.695927	-3.104698	1.677792	0.029283	20.224318	-2.599212	0.000000	-0.147187	-0.411803	-0.112732	-0.273341	-0.547698	-0.119778	-0.241814	-1.001259	-0.119778	-0.168220	-1.001259	-0.098641	-0.136678	-0.839749	-0.091595	-0.084103	-0.637883	-0.084549	-1.051344	-4.658401	-0.626983	0.000000	0.000000	6.623189	1.262177	-3.453782	-6.162802	-17.428255	12.826176	120.040576	75.416623	11.162681	6.045222	-13.014701	-25.995513	4.088713	122.860367	39.437057	27.351863	17.673336
3.152542	-2.709486	-0.679334	93.194391	0.294020	0.717603	0.884325	-4.054591	-0.382164	-5.645925	3.574980	0.062395	19.515404	8.985619	0.000000	-4.609718	1.623878	-2.974041	1.785049	0.031155	20.202193	-2.259879	0.000000	-0.133356	-0.412403	-0.178102	-0.247655	-0.548496	-0.189234	-0.219091	-1.002717	-0.189234	-0.152413	-1.002717	-0.155839	-0.123834	-0.840972	-0.144708	-0.076200	-0.638812	-0.133577	-0.952548	-4.665185	-0.990551	0.000000	0.000000	7.146213	1.225246	-3.658169	-5.094228	-16.977160	13.647109	116.711678	75.832529	9.257183	4.709359	-12.626055	-25.878648	5.096085	119.498673	43.292675	27.929810	16.214273
3.169492	-2.716200	-0.710784	93.733043	0.293270	0.717706	0.884168	-4.140338	-0.367212	-6.312858	3.497638	0.061045	19.518642	9.337786	0.000000	-4.532005	1.584617	-2.952098	1.887014	0.032935	20.190164	-1.801788	0.000000	-0.117340	-0.416686	-0.241792	-0.217912	-0.554192	-0.256904	-0.192778	-1.013129	-0.256904	-0.134108	-1.013129	-0.211568	-0.108962	-0.849705	-0.196456	-0.067048	-0.645446	-0.181344	-0.838148	-4.713630	-1.344773	0.000000	0.000000	7.752040	1.220054	-3.822370	-3.700939	-16.499383	14.834966	112.430766	76.577015	7.248485	2.950754	-12.085982	-25.616227	5.958335	115.487422	47.872908	28.471813	14.995709
3.186441	-2.747542	-0.725096	94.193877	0.292570	0.717848	0.884015	-4.224378	-0.399048	-7.090106	3.471906	0.060596	19.516262	9.914507	0.000000	-4.479395	1.577969	-3.129793	1.976720	0.034500	20.221924	-1.125338	0.000000	-0.099880	-0.422893	-0.286893	-0.185487	-0.562447	-0.304824	-0.164093	-1.028221	-0.304824	-0.114153	-1.028221	-0.251032	-0.092749	-0.862363	-0.233101	-0.057072	-0.655061	-0.215170	-0.713434	-4.783846	-1.595615	0.000000	0.000000	8.455933	1.240389	-3.932580	-2.082570	-15.928104	15.963947	107.175255	77.912342	5.299758	1.219931	-11.288990	-25.197712	6.792615	110.744515	53.055011	29.026618	14.077133
3.203390	-2.769924	-0.720103	94.562979	0.291825	0.717942	0.883831	-4.318534	-0.440700	-7.762876	3.475086	0.060652	19.477620	10.443822	0.000000	-4.461332	1.580541	-3.288517	2.039387	0.035594	20.265890	-0.563491	0.000000	-0.080690	-0.424810	-0.311674	-0.149849	-0.564997	-0.331153	-0.132566	-1.032883	-0.331153	-0.092221	-1.032883	-0.272714	-0.074929	-0.866273	-0.253235	-0.046106	-0.658031	-0.233755	-0.576360	-4.805536	-1.733435	0.000000	0.000000	9.267384	1.222214	-3.932246	-0.421859	-15.587183	13.398486	101.619182	82.549897	3.024638	0.143923	-10.248966	-24.613786	7.709772	105.325940	58.728184	29.085785	13.470448
3.220339	-2.795120	-0.695047	94.834261	0.291115	0.718005	0.883608	-4.431702	-0.494073	-8.218443	3.483554	0.060799	19.381382	10.774284	0.000000	-4.481438	1.601076	-3.378853	2.070266	0.036133	20.291563	-0.182401	0.000000	-0.060813	-0.423303	-0.310761	-0.112936	-0.562994	-0.330184	-0.099910	-1.029220	-0.330184	-0.069503	-1.029220	-0.271916	-0.056471	-0.863200	-0.252493	-0.034749	-0.655697	-0.233071	-0.434382	-4.788493	-1.728360	0.000000	0.000000	10.161650	1.153027	-3.777185	1.695358	-14.992393	14.086651	94.459508	84.733839	1.275159	-1.238931	-8.853741	-23.899820	9.145804	99.135354	64.307585	28.762628	13.126238
3.237288	-2.806592	-0.653940	94.973802	0.290405	0.717964	0.883299	-4.551606	-0.551449	-8.455936	3.506294	0.061196	19.269509	10.955095	0.000000	-4.542162	1.630217	-3.441002	2.067298	0.036081	20.328457	0.039504	0.000000	-0.041128	-0.414895	-0.274896	-0.076379	-0.551810	-0.292077	-0.067569	-1.008776	-0.292077	-0.047005	-1.008776	-0.240534	-0.038191	-0.846054	-0.223353	-0.023500	-0.642673	-0.206172	-0.293772	-4.693376	-1.528889	0.000000	0.000000	11.152218	1.012170	-3.427084	4.121294	-14.264453	17.533177	86.098997	84.727140	0.133105	-2.757313	-7.120767	-23.044200	11.399511	92.210938	69.617044	27.950087	12.862292
3.254237	-2.808096	-0.588410	94.998740	0.289710	0.717735	0.882842	-4.695001	-0.610167	-8.572499	3.530769	0.061624	19.198994	11.097031	0.000000	-4.658389	1.668224	-3.461463	2.023644	0.035319	20.387729	0.107275	0.000000	-0.024152	-0.401359	-0.206441	-0.044853	-0.533808	-0.219343	-0.039679	-0.975865	-0.219343	-0.027603	-0.975865	-0.180636	-0.022427	-0.818452	-0.167733	-0.013800	-0.621706	-0.154831	-0.172515	-4.540257	-1.148162	0.000000	0.000000	12.236917	0.815751	-2.942988	6.712197	-13.458987	23.767664	76.835702	82.539900	-0.350179	-4.278865	-5.395154	-22.386931	9.130207	85.514872	78.771729	26.452485	13.510502
3.271186	-2.770610	-0.500478	94.871370	0.289006	0.717326	0.882210	-4.859688	-0.644602	-8.367480	3.541623	0.061813	19.143663	10.980998	0.000000	-4.832636	1.693414	-3.436762	1.938218	0.033828	20.448703	-0.051956	0.000000	-0.009821	-0.377925	-0.100012	-0.018238	-0.502640	-0.106262	-0.016135	-0.918886	-0.106262	-0.011224	-0.918886	-0.087510	-0.009120	-0.770664	-0.081259	-0.005612	-0.585406	-0.075009	-0.070149	-4.275162	-0.556234	0.000000	0.000000	13.376542	0.549629	-2.288728	9.290712	-12.719550	31.760780	67.148739	78.706265	-0.281939	-5.721029	-3.431795	-21.432409	10.353706	77.951020	84.773485	24.688252	13.908841
3.288136	-2.694182	-0.387105	94.605721	0.288315	0.716725	0.881387	-5.051839	-0.651011	-7.884037	3.529884	0.061608	19.128085	10.663662	0.000000	-5.069346	1.702536	-3.388803	1.814073	0.031662	20.518435	-0.404241	0.000000	0.000689	-0.345765	0.037645	0.001279	-0.459867	0.039998	0.001131	-0.840692	0.039998	0.000787	-0.840692	0.032940	0.000639	-0.705084	0.030587	0.000393	-0.535590	0.028234	0.004919	-3.911360	0.209372	0.000000	0.000000	14.530051	0.235979	-1.499123	11.707668	-12.079099	41.240539	57.383624	73.313504	0.314518	-7.045120	-1.380840	-20.273141	14.423413	69.880337	87.781600	22.633626	14.222227
